:SAMPLES-PER-SECOND 30
:FULLY-SPECIFIED
:DEGREES
110
root  -9.70587 34.8622 -18.0501 -171.286 1.14006 179.71
RightUpLeg  -3.99892 -14.4349 3.50208
RightLeg  -0.240936 -0.104426 0.00913851
RightFoot  3.62242 0.0105272 0.126243
RightToes  -17.9277 -0.0537764 -0.153343
Spine  -3.86839 1.16712 -1.14144
Spine1  -7.75648 2.2866 -1.69535
HEad  -61.7361 -4.87679 12.2494
LeftShoulder1  -1.94126e-019 -3.10601e-018 -2.51263e-017
LeftArm  -8.92246 26.4667 -77.6176
LeftForeArm  34.2771 -16.6121 -2.80852
LeftHand  -0.374294 -1.08956 6.84632
RightShoulder  -4.96962e-017 0 -2.36833e-017
RightArm  -76.8611 7.92146 5.97812
RightForeArm  167.24 42.6914 170.397
RightHand  -0.299514 -0.822221 -7.68288
LeftUpLeg  -4.26345 -2.09344 -2.94192
LeftLeg  0.261497 14.9671 -0.884359
LeftFoot  4.32076 -0.0295012 1.29278
LeftToes  -8.54838 1.48347e-006 1.01831e-007
111
root  -9.69926 34.8625 -18.049 -171.268 1.09612 179.696
RightUpLeg  -3.99806 -14.4453 3.50788
RightLeg  -0.285677 -0.128716 0.0088475
RightFoot  3.64488 0.0101838 0.124436
RightToes  -17.859 -0.053616 -0.152553
Spine  -3.86254 1.15966 -1.12677
Spine1  -7.74439 2.2733 -1.66672
HEad  -61.6626 -4.79979 12.1627
LeftShoulder1  -1.94126e-019 -3.10601e-018 -2.51263e-017
LeftArm  -8.77603 26.3668 -77.8502
LeftForeArm  34.2168 -16.9863 -2.86295
LeftHand  -0.367446 -1.0376 6.77329
RightShoulder  -4.96962e-017 0 -2.36833e-017
RightArm  -76.8318 7.90498 6.07914
RightForeArm  167.243 42.6856 170.399
RightHand  -0.298149 -0.799442 -7.65919
LeftUpLeg  -4.2756 -2.09798 -2.94184
LeftLeg  0.235589 14.9106 -0.887786
LeftFoot  4.35291 -0.03046 1.29654
LeftToes  -8.61708 1.48347e-006 1.01831e-007
112
root  -9.68884 34.8628 -18.0508 -171.228 1.09247 179.692
RightUpLeg  -3.9981 -14.3998 3.53211
RightLeg  -0.350857 -0.197015 0.0166845
RightFoot  3.67139 0.00980556 0.122847
RightToes  -17.8258 -0.0535236 -0.151762
Spine  -3.85405 1.15906 -1.11113
Spine1  -7.72682 2.27371 -1.63556
HEad  -61.6722 -4.71012 12.1508
LeftShoulder1  -1.94126e-019 -3.10601e-018 -2.51263e-017
LeftArm  -8.58692 26.2631 -78.0361
LeftForeArm  34.0773 -17.2641 -2.90769
LeftHand  -0.369325 -1.03877 6.80618
RightShoulder  -4.96962e-017 0 -2.36833e-017
RightArm  -76.8293 7.93454 6.17372
RightForeArm  167.238 42.6409 170.412
RightHand  -0.297703 -0.799229 -7.60358
LeftUpLeg  -4.28232 -2.04417 -2.9272
LeftLeg  0.173536 14.8416 -0.899709
LeftFoot  4.38893 -0.0314828 1.30048
LeftToes  -8.6633 1.48347e-006 1.01831e-007
113
root  -9.68047 34.8629 -18.0526 -171.202 1.1001 179.693
RightUpLeg  -3.99751 -14.4327 3.54788
RightLeg  -0.391002 -0.142341 0.00794466
RightFoot  3.6776 0.00939721 0.121422
RightToes  -17.751 -0.0534987 -0.150975
Spine  -3.84315 1.16193 -1.10407
Spine1  -7.70529 2.28136 -1.62086
HEad  -61.6525 -4.67003 12.1536
LeftShoulder1  -1.94126e-019 -3.10601e-018 -2.51263e-017
LeftArm  -8.47181 26.2139 -78.1614
LeftForeArm  33.9821 -17.4863 -2.93947
LeftHand  -0.36302 -0.950733 6.74615
RightShoulder  -4.96962e-017 0 -2.36833e-017
RightArm  -76.7506 7.96753 6.3501
RightForeArm  167.332 42.5843 170.436
RightHand  -0.296943 -0.867344 -7.5684
LeftUpLeg  -4.28783 -2.09581 -2.91587
LeftLeg  0.139179 14.8935 -0.911642
LeftFoot  4.40999 -0.032943 1.31053
LeftToes  -8.65375 1.48347e-006 1.01831e-007
114
root  -9.67192 34.863 -18.0562 -171.165 1.12656 179.697
RightUpLeg  -4.0003 -14.333 3.56876
RightLeg  -0.448616 -0.212669 0.0164418
RightFoot  3.6913 0.00896332 0.120107
RightToes  -17.7542 -0.0535405 -0.150197
Spine  -3.83577 1.16818 -1.09573
Spine1  -7.69075 2.29535 -1.60371
HEad  -61.6541 -4.64512 12.119
LeftShoulder1  -1.94126e-019 -3.10601e-018 -2.51263e-017
LeftArm  -8.33906 26.1961 -78.2233
LeftForeArm  33.9574 -17.5984 -2.95427
LeftHand  -0.35886 -1.02239 6.63212
RightShoulder  -4.96962e-017 0 -2.36833e-017
RightArm  -76.7495 8.03009 6.54817
RightForeArm  167.419 42.582 170.442
RightHand  -0.297502 -0.825201 -7.5174
LeftUpLeg  -4.3032 -2.13724 -2.90227
LeftLeg  0.112933 14.9508 -0.921861
LeftFoot  4.41353 -0.0341666 1.31635
LeftToes  -8.58215 1.48347e-006 1.01831e-007
115
root  -9.66142 34.8629 -18.0609 -171.115 1.22362 179.698
RightUpLeg  -4.05658 -14.2311 3.60157
RightLeg  -0.434515 -0.229355 0.0175029
RightFoot  3.6797 0.00850851 0.118848
RightToes  -17.6588 -0.0536483 -0.149433
Spine  -3.82942 1.19285 -1.08829
Spine1  -7.67863 2.34564 -1.59039
HEad  -61.678 -4.6519 12.143
LeftShoulder1  -1.94126e-019 -3.10601e-018 -2.51263e-017
LeftArm  -8.2534 26.1775 -78.249
LeftForeArm  33.9096 -17.5694 -2.94952
LeftHand  -0.360083 -1.03602 6.68389
RightShoulder  -4.96962e-017 0 -2.36833e-017
RightArm  -76.8281 8.11472 6.77608
RightForeArm  167.343 42.63 170.422
RightHand  -0.296182 -0.881491 -7.52246
LeftUpLeg  -4.29924 -2.13715 -2.88244
LeftLeg  0.0281279 15.0371 -0.949131
LeftFoot  4.475 -0.0365738 1.34017
LeftToes  -8.70828 1.48347e-006 1.01831e-007
116
root  -9.65303 34.8627 -18.0669 -171.084 1.23798 179.693
RightUpLeg  -4.06715 -14.2075 3.61597
RightLeg  -0.45758 -0.236457 0.0169857
RightFoot  3.66939 0.00802664 0.117747
RightToes  -17.5463 -0.0538214 -0.148689
Spine  -3.8248 1.19385 -1.08987
Spine1  -7.67026 2.34885 -1.59184
HEad  -61.6544 -4.70039 12.1542
LeftShoulder1  -1.94126e-019 -3.10601e-018 -2.51263e-017
LeftArm  -8.21862 26.1966 -78.2354
LeftForeArm  33.828 -17.4546 -2.92951
LeftHand  -0.36369 -1.04982 6.69352
RightShoulder  -4.96962e-017 0 -2.36833e-017
RightArm  -76.7804 8.16424 7.02063
RightForeArm  167.025 42.686 170.384
RightHand  -0.294779 -0.957306 -7.52193
LeftUpLeg  -4.29911 -2.05745 -2.87188
LeftLeg  -0.0183428 14.9527 -0.95596
LeftFoot  4.5007 -0.0374839 1.34044
LeftToes  -8.64985 1.48347e-006 1.01831e-007
117
root  -9.64274 34.8623 -18.0773 -171.043 1.23151 179.687
RightUpLeg  -4.076 -14.229 3.63374
RightLeg  -0.490023 -0.218551 0.0126198
RightFoot  3.66874 0.00751377 0.116871
RightToes  -17.5151 -0.0540591 -0.14797
Spine  -3.8212 1.19112 -1.09389
Spine1  -7.66342 2.34376 -1.59778
HEad  -61.6829 -4.78241 12.1925
LeftShoulder1  -1.94126e-019 -3.10601e-018 -2.51263e-017
LeftArm  -8.22596 26.2321 -78.174
LeftForeArm  33.8426 -17.2647 -2.90224
LeftHand  -0.360112 -0.978106 6.82192
RightShoulder  -4.96962e-017 0 -2.36833e-017
RightArm  -76.681 8.1443 7.16571
RightForeArm  167.242 42.6185 170.419
RightHand  -0.293833 -0.94108 -7.49946
LeftUpLeg  -4.28552 -2.03429 -2.86138
LeftLeg  -0.104845 14.9382 -0.977428
LeftFoot  4.54497 -0.0390958 1.35149
LeftToes  -8.56792 1.48347e-006 1.01831e-007
118
root  -9.63389 34.8611 -18.0887 -170.999 1.20778 179.68
RightUpLeg  -4.08657 -14.2293 3.65073
RightLeg  -0.521635 -0.242499 0.0137214
RightFoot  3.66238 0.00697783 0.11612
RightToes  -17.4796 -0.0543607 -0.147282
Spine  -3.8043 1.18672 -1.09623
Spine1  -7.6295 2.33504 -1.60001
HEad  -61.7584 -4.82976 12.1494
LeftShoulder1  -1.94126e-019 -3.10601e-018 -2.51263e-017
LeftArm  -8.20482 26.2833 -78.0878
LeftForeArm  33.82 -17.1845 -2.88952
LeftHand  -0.361962 -1.00169 6.7084
RightShoulder  -4.96962e-017 0 -2.36833e-017
RightArm  -76.6067 8.07053 7.19904
RightForeArm  167.621 42.4968 170.48
RightHand  -0.292821 -0.874082 -7.47869
LeftUpLeg  -4.30086 -2.04209 -2.8524
LeftLeg  -0.129271 14.9513 -0.984589
LeftFoot  4.57641 -0.0406301 1.36132
LeftToes  -8.57458 1.48347e-006 1.01831e-007
119
root  -9.62496 34.8602 -18.0982 -170.963 1.16454 179.674
RightUpLeg  -4.09387 -14.1479 3.66785
RightLeg  -0.540188 -0.362306 0.0279703
RightFoot  3.64034 0.00642675 0.115393
RightToes  -17.4105 -0.0547256 -0.146629
Spine  -3.79034 1.17854 -1.10096
Spine1  -7.60196 2.31899 -1.60896
HEad  -61.8109 -4.8687 12.2012
LeftShoulder1  -1.94126e-019 -3.10601e-018 -2.51263e-017
LeftArm  -8.21615 26.3129 -77.9816
LeftForeArm  33.898 -16.9278 -2.84993
LeftHand  -0.363821 -0.969817 6.77339
RightShoulder  -4.96962e-017 0 -2.36833e-017
RightArm  -76.4955 8.02542 7.24632
RightForeArm  167.589 42.4435 170.495
RightHand  -0.290873 -0.884863 -7.49366
LeftUpLeg  -4.32576 -2.08853 -2.84101
LeftLeg  -0.128871 14.9287 -0.983031
LeftFoot  4.58754 -0.0416161 1.36277
LeftToes  -8.69344 1.48347e-006 1.01831e-007
120
root  -9.61486 34.8594 -18.1099 -170.934 1.13794 179.67
RightUpLeg  -4.10996 -14.165 3.68365
RightLeg  -0.522559 -0.368901 0.0269799
RightFoot  3.6026 0.00586847 0.114589
RightToes  -17.3442 -0.0551529 -0.146017
Spine  -3.78532 1.17424 -1.10572
Spine1  -7.59241 2.31076 -1.61488
HEad  -61.7953 -4.89066 12.1618
LeftShoulder1  -1.94126e-019 -3.10601e-018 -2.51263e-017
LeftArm  -8.21367 26.385 -77.87
LeftForeArm  33.9189 -16.6944 -2.81276
LeftHand  -0.372948 -1.0352 6.87533
RightShoulder  -4.96962e-017 0 -2.36833e-017
RightArm  -76.4342 8.04971 7.31427
RightForeArm  167.584 42.4575 170.49
RightHand  -0.287922 -0.885919 -7.55417
LeftUpLeg  -4.34119 -2.06768 -2.829
LeftLeg  -0.128063 14.8981 -0.980529
LeftFoot  4.60353 -0.0425222 1.36326
LeftToes  -8.74891 1.48347e-006 1.01831e-007
121
root  -9.60598 34.8585 -18.1219 -170.902 1.10947 179.665
RightUpLeg  -4.11611 -14.2011 3.69884
RightLeg  -0.532098 -0.353047 0.0235789
RightFoot  3.58245 0.00531088 0.113607
RightToes  -17.2959 -0.0556422 -0.145451
Spine  -3.78437 1.17824 -1.10819
Spine1  -7.5908 2.31826 -1.61959
HEad  -61.758 -4.9389 12.1372
LeftShoulder1  -1.94126e-019 -3.10601e-018 -2.51263e-017
LeftArm  -8.24768 26.422 -77.7618
LeftForeArm  33.981 -16.3873 -2.76622
LeftHand  -0.368702 -1.00458 6.82836
RightShoulder  -4.96962e-017 0 -2.36833e-017
RightArm  -76.5287 8.07343 7.42422
RightForeArm  167.695 42.5177 170.478
RightHand  -0.288526 -0.892499 -7.4608
LeftUpLeg  -4.35603 -2.07481 -2.81725
LeftLeg  -0.127414 14.8797 -0.979818
LeftFoot  4.61703 -0.0433501 1.36293
LeftToes  -8.83653 1.48347e-006 1.01831e-007
122
root  -9.59565 34.8572 -18.1324 -170.867 1.09807 179.661
RightUpLeg  -4.13203 -14.1931 3.7206
RightLeg  -0.534026 -0.370396 0.0252404
RightFoot  3.56227 0.00476196 0.112347
RightToes  -17.2643 -0.0561925 -0.144937
Spine  -3.77936 1.18515 -1.1098
Spine1  -7.5811 2.33175 -1.62584
HEad  -61.7626 -4.94812 12.1273
LeftShoulder1  -1.94126e-019 -3.10601e-018 -2.51263e-017
LeftArm  -8.38092 26.4457 -77.6674
LeftForeArm  34.024 -16.1403 -2.72956
LeftHand  -0.373336 -1.06284 6.85517
RightShoulder  -4.96962e-017 0 -2.36833e-017
RightArm  -76.6761 8.0998 7.69473
RightForeArm  167.563 42.5857 170.448
RightHand  -0.286219 -0.930569 -7.50023
LeftUpLeg  -4.37391 -2.09855 -2.79994
LeftLeg  -0.128736 14.9225 -0.987398
LeftFoot  4.5998 -0.0441245 1.36232
LeftToes  -8.6909 1.48347e-006 1.01831e-007
